<?xml version="1.0" encoding="iso-8859-1"?>
<!-- Generator: Adobe Illustrator 19.0.0, SVG Export Plug-In . SVG Version: 6.00 Build 0)  -->
<svg version="1.1" id="Layer_1" xmlns="http://www.w3.org/2000/svg" xmlns:xlink="http://www.w3.org/1999/xlink" x="0px" y="0px"
	 viewBox="0 0 512 512" style="enable-background:new 0 0 512 512;" xml:space="preserve">
<g>
	<path style="fill:#2D527C;" d="M255.999,126.596c-27.071,0-49.096-22.024-49.096-49.096s22.024-49.096,49.096-49.096
		s49.096,22.024,49.096,49.096S283.071,126.596,255.999,126.596z M255.999,56.459c-11.602,0-21.041,9.439-21.041,21.041
		c0,11.602,9.439,21.041,21.041,21.041c11.602,0,21.041-9.439,21.041-21.041C277.04,65.898,267.601,56.459,255.999,56.459z"/>
	<path style="fill:#2D527C;" d="M57.758,480.791c-7.747,0-14.027-6.281-14.027-14.027V156.715c0-7.746,6.28-14.027,14.027-14.027
		h396.485c7.747,0,14.027,6.281,14.027,14.027V383.16c0,7.746-6.28,14.027-14.027,14.027s-14.027-6.281-14.027-14.027V170.742
		H71.785v296.021C71.785,474.51,65.505,480.791,57.758,480.791z"/>
</g>
<path style="fill:#CEE8FA;" d="M456.591,185.192H55.409c-22.118,0-40.05-17.931-40.05-40.05v-2.668
	c0-22.118,17.931-40.05,40.05-40.05H456.59c22.118,0,40.049,17.931,40.049,40.05v2.668
	C496.64,167.261,478.709,185.192,456.591,185.192z"/>
<g>
	<path style="fill:#2D527C;" d="M456.591,199.219H55.409c-29.818,0-54.077-24.259-54.077-54.078v-2.667
		c0-29.818,24.259-54.077,54.077-54.077H456.59c29.818,0,54.077,24.259,54.077,54.077v2.667
		C510.667,174.96,486.408,199.219,456.591,199.219z M55.409,116.452c-14.349,0-26.022,11.674-26.022,26.022v2.667
		c0,14.349,11.674,26.024,26.022,26.024H456.59c14.349,0,26.022-11.674,26.022-26.024v-2.667c0-14.349-11.674-26.022-26.022-26.022
		C456.59,116.452,55.409,116.452,55.409,116.452z"/>
	<path style="fill:#2D527C;" d="M497.973,483.596H478.85c-7.747,0-14.027-6.281-14.027-14.027s6.28-14.027,14.027-14.027h19.123
		c7.747,0,14.027,6.281,14.027,14.027S505.72,483.596,497.973,483.596z"/>
	<path style="fill:#2D527C;" d="M426.941,483.596H14.027C6.28,483.596,0,477.315,0,469.569s6.28-14.027,14.027-14.027h412.914
		c7.747,0,14.027,6.281,14.027,14.027S434.688,483.596,426.941,483.596z"/>
	<path style="fill:#2D527C;" d="M107.689,350.443l19.697-27.544l-18.362-25.54c-0.501-0.669-1.335-2.171-1.335-3.507
		c0-5.006,8.68-10.849,14.356-10.849c1.002,0,3.505,0.167,4.841,2.337l15.19,24.371l15.357-24.204
		c1.168-1.838,3.505-2.504,5.008-2.504c5.175,0,14.189,5.842,14.189,10.849c0,1.17-0.501,2.171-1.335,3.507l-18.529,25.707
		l19.866,27.377c0.668,0.668,1.335,2.17,1.335,3.672c0,4.674-8.346,10.683-14.022,10.683c-1.669,0-3.839-0.669-5.008-2.337
		l-16.861-25.374l-16.693,25.374c-1.168,1.668-3.672,2.337-5.342,2.337c-4.507,0-13.688-5.675-13.688-10.683
		C106.354,352.78,106.855,351.444,107.689,350.443z"/>
	<path style="fill:#2D527C;" d="M209.346,349.94v-17.861h-17.861c-4.006,0-6.677-3.505-6.677-8.847c0-5.008,2.671-9.015,6.677-9.015
		h17.861v-17.694c0-3.505,4.006-6.844,9.014-6.844c5.342,0,8.847,3.339,8.847,6.844v17.694h17.694c3.505,0,7.011,4.006,7.011,9.015
		c0,5.342-3.505,8.847-7.011,8.847h-17.694v17.861c0,4.006-3.505,6.678-8.847,6.678C213.352,356.619,209.346,353.948,209.346,349.94
		z"/>
	<path style="fill:#2D527C;" d="M257.082,296.024c-0.334-0.836-0.668-1.838-0.668-2.838c0-5.675,8.847-10.349,14.356-10.349
		c2.838,0,5.342,1.002,6.176,3.672l20.031,49.912l16.192-49.912c0.835-2.671,3.339-3.672,5.675-3.672
		c5.175,0,14.689,4.674,14.689,10.683c0,0.668-0.167,1.668-0.501,2.504l-24.373,62.265c-7.845,20.031-12.519,41.9-42.4,41.9
		c-5.509,0-9.849-1.168-9.849-9.181c0-4.841,1.502-9.015,5.509-9.015c7.345,0,22.703-4.507,23.872-24.538L257.082,296.024z"/>
	<path style="fill:#2D527C;" d="M350.394,296.356h43.068c3.505,0,7.011,4.006,7.011,9.015c0,5.342-3.505,8.847-7.011,8.847h-43.068
		c-4.006,0-6.677-3.505-6.677-8.847C343.717,300.362,346.387,296.356,350.394,296.356z M350.394,330.243h43.068
		c3.505,0,7.011,4.005,7.011,9.014c0,5.343-3.505,8.848-7.011,8.848h-43.068c-4.006,0-6.677-3.505-6.677-8.848
		C343.717,334.249,346.387,330.243,350.394,330.243z"/>
</g>
<g>
</g>
<g>
</g>
<g>
</g>
<g>
</g>
<g>
</g>
<g>
</g>
<g>
</g>
<g>
</g>
<g>
</g>
<g>
</g>
<g>
</g>
<g>
</g>
<g>
</g>
<g>
</g>
<g>
</g>
</svg>
