<?xml version="1.0" encoding="iso-8859-1"?>
<!-- Generator: Adobe Illustrator 19.0.0, SVG Export Plug-In . SVG Version: 6.00 Build 0)  -->
<svg version="1.1" id="Layer_1" xmlns="http://www.w3.org/2000/svg" xmlns:xlink="http://www.w3.org/1999/xlink" x="0px" y="0px"
	 viewBox="0 0 512.002 512.002" style="enable-background:new 0 0 512.002 512.002;" xml:space="preserve">
<path style="fill:#2D527C;" d="M457.16,504.249H54.841C24.602,504.249,0,479.648,0,449.407v-301.54
	c0-30.241,24.602-54.841,54.841-54.841H457.16c30.239,0,54.841,24.602,54.841,54.841v194.565c0,7.613-6.172,13.786-13.786,13.786
	s-13.786-6.173-13.786-13.786V147.867c0-15.036-12.234-27.27-27.27-27.27H54.841c-15.036,0-27.27,12.234-27.27,27.27v301.54
	c0,15.036,12.234,27.27,27.27,27.27H457.16c15.036,0,27.27-12.234,27.27-27.27v-32.743c0-7.613,6.172-13.786,13.786-13.786
	s13.786,6.173,13.786,13.786v32.743C512,479.648,487.399,504.249,457.16,504.249z"/>
<path style="fill:#CEE8FA;" d="M165.169,450.091v40.372H54.841c-22.678,0-41.056-18.378-41.056-41.056v-23.538h127.163
	C154.331,425.869,165.169,436.723,165.169,450.091z"/>
<g>
	<path style="fill:#2D527C;" d="M165.171,504.249H54.841C24.602,504.249,0,479.648,0,449.407v-23.538
		c0-7.613,6.172-13.786,13.786-13.786h127.163c20.957,0,38.008,17.05,38.008,38.008v40.372
		C178.957,498.077,172.783,504.249,165.171,504.249z M27.572,439.655v9.752c0,15.036,12.234,27.27,27.27,27.27h96.544v-26.586
		c0-5.754-4.682-10.436-10.436-10.436H27.572z"/>
	<path style="fill:#2D527C;" d="M176.58,225.622c27.625,0,55.488,17.384,55.488,49.295c0,51.678-73.586,68.586-73.586,90.257v2.144
		h62.393c5.954,0,11.193,7.381,11.193,15.956c0,8.573-5.239,16.431-11.193,16.431h-84.78c-6.668,0-16.194-4.525-16.194-11.431v-23.1
		c0-37.389,75.016-58.821,75.016-89.065c0-7.621-4.763-16.908-18.098-16.908c-9.526,0-17.861,4.762-17.861,17.86
		c0,6.907-7.382,13.575-19.528,13.575c-9.526,0-16.67-4.286-16.67-19.289C122.759,242.292,149.431,225.622,176.58,225.622z"/>
	<path style="fill:#2D527C;" d="M268.504,380.653v-23.101h-23.1c-6.668,0-11.193-5.953-11.193-15.003
		c0-8.573,4.525-15.242,11.193-15.242h23.1v-22.861c0-5.716,6.668-11.431,15.242-11.431c9.049,0,15.003,5.716,15.003,11.431v22.861
		h22.861c5.716,0,11.431,6.668,11.431,15.242c0,9.049-5.716,15.003-11.431,15.003h-22.861v23.101
		c0,6.668-5.953,11.193-15.003,11.193C275.172,391.846,268.504,387.321,268.504,380.653z"/>
	<path style="fill:#2D527C;" d="M354.949,267.058l-6.907,4.286c-2.144,1.428-4.286,1.905-5.953,1.905
		c-6.907,0-11.67-7.382-11.67-14.765c0-5.002,2.144-9.765,6.907-12.621l31.434-19.052c1.905-1.19,4.286-1.667,6.907-1.667
		c7.621,0,16.431,4.524,16.431,11.67v151.458c0,7.621-9.288,11.431-18.575,11.431s-18.575-3.81-18.575-11.431L354.949,267.058
		L354.949,267.058z"/>
</g>
<path style="fill:#CEE8FA;" d="M200.512,106.812H72.304v-57.01c0-15.608,12.653-28.261,28.261-28.261h71.686
	c15.608,0,28.261,12.653,28.261,28.261L200.512,106.812L200.512,106.812z"/>
<path style="fill:#2D527C;" d="M200.512,120.597H72.304c-7.614,0-13.786-6.173-13.786-13.786v-57.01
	c0-23.184,18.862-42.047,42.047-42.047h71.686c23.185,0,42.047,18.863,42.047,42.047v57.01
	C214.298,114.424,208.126,120.597,200.512,120.597z M86.09,93.026h100.637V49.802c0-7.982-6.493-14.475-14.475-14.475h-71.686
	c-7.982,0-14.475,6.493-14.475,14.475C86.09,49.802,86.09,93.026,86.09,93.026z"/>
<path style="fill:#CEE8FA;" d="M439.696,106.812H311.488v-57.01c0-15.608,12.653-28.261,28.261-28.261h71.686
	c15.608,0,28.261,12.653,28.261,28.261L439.696,106.812L439.696,106.812z"/>
<g>
	<path style="fill:#2D527C;" d="M439.696,120.597H311.488c-7.614,0-13.786-6.173-13.786-13.786v-57.01
		c0-23.184,18.862-42.047,42.047-42.047h71.686c23.185,0,42.047,18.863,42.047,42.047v57.01
		C453.482,114.424,447.31,120.597,439.696,120.597z M325.274,93.026H425.91V49.802c0-7.982-6.493-14.475-14.475-14.475h-71.686
		c-7.982,0-14.475,6.493-14.475,14.475V93.026z"/>
	<path style="fill:#2D527C;" d="M393.858,193.967H13.786C6.172,193.967,0,187.794,0,180.181s6.172-13.786,13.786-13.786h380.072
		c7.614,0,13.786,6.173,13.786,13.786C407.644,187.794,401.472,193.967,393.858,193.967z"/>
</g>
<g>
</g>
<g>
</g>
<g>
</g>
<g>
</g>
<g>
</g>
<g>
</g>
<g>
</g>
<g>
</g>
<g>
</g>
<g>
</g>
<g>
</g>
<g>
</g>
<g>
</g>
<g>
</g>
<g>
</g>
</svg>
